HIERARCHY
ROOT root
{
	OFFSET	0	13.1	24.9
	CHANNELS 6  Xposition Yposition Zposition Xrotation Yrotation Zrotation
	JOINT spine_1
	{
		OFFSET	0	9.99999	0
		CHANNELS 3  Xrotation Yrotation Zrotation
		JOINT spine_2
		{
			OFFSET	0	112	-10
			CHANNELS 3  Xrotation Yrotation Zrotation
			JOINT spine_3
			{
				OFFSET	0	206.5	19.3
				CHANNELS 3  Xrotation Yrotation Zrotation
				JOINT spine_4
				{
					OFFSET	0	110.4	14.6
					CHANNELS 3  Xrotation Yrotation Zrotation
					JOINT neck_1
					{
						OFFSET	0	71.8	-50.3
						CHANNELS 3  Xrotation Yrotation Zrotation
						JOINT neck_2
						{
							OFFSET	0	86.2	-25.8
							CHANNELS 3  Xrotation Yrotation Zrotation
							JOINT head_ee
							{
								OFFSET	0	179.8	-8.7
								CHANNELS 3  Xrotation Yrotation Zrotation
								End Site
								{
									OFFSET	1	0	0
								}
							}
						}
					}
					JOINT left_clavicle
					{
						OFFSET	-43.2	22.4	-70.8
						CHANNELS 3  Xrotation Yrotation Zrotation
						JOINT left_shoulder
						{
							OFFSET	-93.9	-5.79999	48.7
							CHANNELS 3  Xrotation Yrotation Zrotation
							JOINT left_elbow
							{
								OFFSET	-291.4	-30.8	15.2
								CHANNELS 3  Xrotation Yrotation Zrotation
								JOINT left_lowarm_twist
								{
									OFFSET	-110.7	-3.89999	13.6
									CHANNELS 3  Xrotation Yrotation Zrotation
									JOINT left_hand
									{
										OFFSET	-110.7	-3.89999	13.6
										CHANNELS 3  Xrotation Yrotation Zrotation
										JOINT left_ee
										{
											OFFSET	-80.8	-5.10001	12.1
											CHANNELS 3  Xrotation Yrotation Zrotation
											End Site
											{
												OFFSET	1	0	0
											}
										}
									}
								}
							}
						}
					}
					JOINT right_clavicle
					{
						OFFSET	43.2	22.4	-70.8
						CHANNELS 3  Xrotation Yrotation Zrotation
						JOINT right_shoulder
						{
							OFFSET	93.9	-5.79999	48.7
							CHANNELS 3  Xrotation Yrotation Zrotation
							JOINT right_elbow
							{
								OFFSET	291.4	-30.8	15.2
								CHANNELS 3  Xrotation Yrotation Zrotation
								JOINT right_lowarm_twist
								{
									OFFSET	110.7	-3.89999	13.6
									CHANNELS 3  Xrotation Yrotation Zrotation
									JOINT right_hand
									{
										OFFSET	110.7	-3.89999	13.6
										CHANNELS 3  Xrotation Yrotation Zrotation
										JOINT right_ee
										{
											OFFSET	80.8	-5.10001	12.1
											CHANNELS 3  Xrotation Yrotation Zrotation
											End Site
											{
												OFFSET	1	0	0
											}
										}
									}
								}
							}
						}
					}
				}
			}
		}
	}
	JOINT left_hip
	{
		OFFSET	-82.8	-127.5	0.300001
		CHANNELS 3  Xrotation Yrotation Zrotation
		JOINT left_knee
		{
			OFFSET	-28.2	-396.7	2.2
			CHANNELS 3  Xrotation Yrotation Zrotation
			JOINT left_ankle
			{
				OFFSET	-11.7	-411.3	35.4
				CHANNELS 3  Xrotation Yrotation Zrotation
				JOINT left_toes
				{
					OFFSET	0	-60	-88.6
					CHANNELS 3  Xrotation Yrotation Zrotation
					JOINT left_foot_ee
					{
						OFFSET	-22.5	-16.5	-42.2
						CHANNELS 3  Xrotation Yrotation Zrotation
						End Site
						{
							OFFSET	1	0	0
						}
					}
				}
			}
		}
	}
	JOINT right_hip
	{
		OFFSET	82.8	-127.5	0.300001
		CHANNELS 3  Xrotation Yrotation Zrotation
		JOINT right_knee
		{
			OFFSET	28.2	-396.7	2.2
			CHANNELS 3  Xrotation Yrotation Zrotation
			JOINT right_ankle
			{
				OFFSET	11.7	-411.3	35.4
				CHANNELS 3  Xrotation Yrotation Zrotation
				JOINT right_toes
				{
					OFFSET	0	-60	-88.6
					CHANNELS 3  Xrotation Yrotation Zrotation
					JOINT right_foot_ee
					{
						OFFSET	22.5	-16.5	-42.2
						CHANNELS 3  Xrotation Yrotation Zrotation
						End Site
						{
							OFFSET	1	0	0
						}
					}
				}
			}
		}
	}
}
MOTION
Frames: 10
Frame Time: 0.02
1041.4 574.639 -1682.42 -8.52401597246 12.9956404702 -1.21973978164 5.9696 0.536225 3.46047 5.97621 0.315077 3.48753 5.98787 -0.0599224 3.50121 5.9711 0.493442 3.46682 -7.48391 0.190058 -4.47584 -7.42446 3.55625 -4.41902 -0.0 0.0 -0.0 -4.73594 21.058 -4.39588 -21.2681 -25.5124 61.4874 1.09132 -28.3951 0.276104 35.4953 -0.135924 -4.46057 -1.69581 28.4403 1.91585 -0.0 0.0 -0.0 9.54587 -3.03894 -18.5672 -18.0101 35.7691 -67.9523 0.968808 25.6368 -0.22044 46.5826 0.735161 5.74353 0.7678 8.43963 -1.60102 0.0 0.0 0.0 34.2393 6.06858 -5.57336 2.51745 -0.111824 -0.370073 -3.37767 2.19506 0.501047 -24.4719 0.0 0.0 -0.0 0.0 -0.0 -1.22425 3.59785 3.96442 -18.1958 -0.312749 -2.76307 40.6104 1.88657 4.94444 -5.31711 0.0 0.0 0.0 0.0 0.0 
1041.4 574.639 -1682.42 -8.53805483888 13.3948091052 -1.15823894192 5.9696 0.536225 3.46047 5.97621 0.315077 3.48753 5.98787 -0.0599224 3.50121 5.9711 0.493442 3.46682 -7.48391 0.190058 -4.47584 -7.42446 3.55625 -4.41902 -0.0 0.0 -0.0 -4.73594 21.058 -4.39588 -21.2681 -25.5124 61.4874 1.09132 -28.3951 0.276104 35.4953 -0.135924 -4.46057 -1.69581 28.4403 1.91585 -0.0 0.0 -0.0 9.54587 -3.03894 -18.5672 -18.0101 35.7691 -67.9523 0.968808 25.6368 -0.22044 46.5826 0.735161 5.74353 0.7678 8.43963 -1.60102 0.0 0.0 0.0 34.2393 6.06858 -5.57336 2.51745 -0.111824 -0.370073 -3.37767 2.19506 0.501047 -24.4719 0.0 0.0 -0.0 0.0 -0.0 -1.22425 3.59785 3.96442 -18.1958 -0.312749 -2.76307 40.6104 1.88657 4.94444 -5.31711 0.0 0.0 0.0 0.0 0.0 
1041.4 574.639 -1682.42 -8.56122622202 14.0265564455 -1.06047885663 5.9696 0.536225 3.46047 5.97621 0.315077 3.48753 5.98787 -0.0599224 3.50121 5.9711 0.493442 3.46682 -7.48391 0.190058 -4.47584 -7.42446 3.55625 -4.41902 -0.0 0.0 -0.0 -4.73594 21.058 -4.39588 -21.2681 -25.5124 61.4874 1.09132 -28.3951 0.276104 35.4953 -0.135924 -4.46057 -1.69581 28.4403 1.91585 -0.0 0.0 -0.0 9.54587 -3.03894 -18.5672 -18.0101 35.7691 -67.9523 0.968808 25.6368 -0.22044 46.5826 0.735161 5.74353 0.7678 8.43963 -1.60102 0.0 0.0 0.0 34.2393 6.06858 -5.57336 2.51745 -0.111824 -0.370073 -3.37767 2.19506 0.501047 -24.4719 0.0 0.0 -0.0 0.0 -0.0 -1.22425 3.59785 3.96442 -18.1958 -0.312749 -2.76307 40.6104 1.88657 4.94444 -5.31711 0.0 0.0 0.0 0.0 0.0 
1041.4 574.639 -1682.42 -8.5605665856 14.009004943 -1.06320211749 5.9696 0.536225 3.46047 5.97621 0.315077 3.48753 5.98787 -0.0599224 3.50121 5.9711 0.493442 3.46682 -7.48391 0.190058 -4.47584 -7.42446 3.55625 -4.41902 -0.0 0.0 -0.0 -4.73594 21.058 -4.39588 -21.2681 -25.5124 61.4874 1.09132 -28.3951 0.276104 35.4953 -0.135924 -4.46057 -1.69581 28.4403 1.91585 -0.0 0.0 -0.0 9.54587 -3.03894 -18.5672 -18.0101 35.7691 -67.9523 0.968808 25.6368 -0.22044 46.5826 0.735161 5.74353 0.7678 8.43963 -1.60102 0.0 0.0 0.0 34.2393 6.06858 -5.57336 2.51745 -0.111824 -0.370073 -3.37767 2.19506 0.501047 -24.4719 0.0 0.0 -0.0 0.0 -0.0 -1.22425 3.59785 3.96442 -18.1958 -0.312749 -2.76307 40.6104 1.88657 4.94444 -5.31711 0.0 0.0 0.0 0.0 0.0 
1041.4 574.639 -1682.42 -8.57765542284 14.4561186854 -0.993695797356 5.9696 0.536225 3.46047 5.97621 0.315077 3.48753 5.98787 -0.0599224 3.50121 5.9711 0.493442 3.46682 -7.48391 0.190058 -4.47584 -7.42446 3.55625 -4.41902 -0.0 0.0 -0.0 -4.73594 21.058 -4.39588 -21.2681 -25.5124 61.4874 1.09132 -28.3951 0.276104 35.4953 -0.135924 -4.46057 -1.69581 28.4403 1.91585 -0.0 0.0 -0.0 9.54587 -3.03894 -18.5672 -18.0101 35.7691 -67.9523 0.968808 25.6368 -0.22044 46.5826 0.735161 5.74353 0.7678 8.43963 -1.60102 0.0 0.0 0.0 34.2393 6.06858 -5.57336 2.51745 -0.111824 -0.370073 -3.37767 2.19506 0.501047 -24.4719 0.0 0.0 -0.0 0.0 -0.0 -1.22425 3.59785 3.96442 -18.1958 -0.312749 -2.76307 40.6104 1.88657 4.94444 -5.31711 0.0 0.0 0.0 0.0 0.0 
1041.4 574.639 -1682.42 -8.59558876652 14.9093822796 -0.922944099529 5.9696 0.536225 3.46047 5.97621 0.315077 3.48753 5.98787 -0.0599224 3.50121 5.9711 0.493442 3.46682 -7.48391 0.190058 -4.47584 -7.42446 3.55625 -4.41902 -0.0 0.0 -0.0 -4.73594 21.058 -4.39588 -21.2681 -25.5124 61.4874 1.09132 -28.3951 0.276104 35.4953 -0.135924 -4.46057 -1.69581 28.4403 1.91585 -0.0 0.0 -0.0 9.54587 -3.03894 -18.5672 -18.0101 35.7691 -67.9523 0.968808 25.6368 -0.22044 46.5826 0.735161 5.74353 0.7678 8.43963 -1.60102 0.0 0.0 0.0 34.2393 6.06858 -5.57336 2.51745 -0.111824 -0.370073 -3.37767 2.19506 0.501047 -24.4719 0.0 0.0 -0.0 0.0 -0.0 -1.22425 3.59785 3.96442 -18.1958 -0.312749 -2.76307 40.6104 1.88657 4.94444 -5.31711 0.0 0.0 0.0 0.0 0.0 
1041.4 574.639 -1682.42 -8.62519905225 15.6257721092 -0.810499579698 5.9696 0.536225 3.46047 5.97621 0.315077 3.48753 5.98787 -0.0599224 3.50121 5.9711 0.493442 3.46682 -7.48391 0.190058 -4.47584 -7.42446 3.55625 -4.41902 -0.0 0.0 -0.0 -4.73594 21.058 -4.39588 -21.2681 -25.5124 61.4874 1.09132 -28.3951 0.276104 35.4953 -0.135924 -4.46057 -1.69581 28.4403 1.91585 -0.0 0.0 -0.0 9.54587 -3.03894 -18.5672 -18.0101 35.7691 -67.9523 0.968808 25.6368 -0.22044 46.5826 0.735161 5.74353 0.7678 8.43963 -1.60102 0.0 0.0 0.0 34.2393 6.06858 -5.57336 2.51745 -0.111824 -0.370073 -3.37767 2.19506 0.501047 -24.4719 0.0 0.0 -0.0 0.0 -0.0 -1.22425 3.59785 3.96442 -18.1958 -0.312749 -2.76307 40.6104 1.88657 4.94444 -5.31711 0.0 0.0 0.0 0.0 0.0 
1030.57131454 574.941 -1698.8689535 -9.21565815477 16.8936033777 0.0238925677754 6.00414 0.398078 3.43063 6.01066 0.179103 3.44898 6.01403 -0.189656 3.44842 5.99762 0.357008 3.43514 -6.85342 0.614672 -4.01505 -6.80352 4.05099 -3.89971 -0.0 0.0 -0.0 -4.55717 18.3453 -4.79008 -21.2164 -26.0351 61.8154 1.12805 -29.1957 0.293798 35.9333 -0.15481 -4.51329 -1.80622 28.2962 1.25268 -0.0 0.0 -0.0 9.81597 -3.03217 -19.1085 -19.5564 35.5479 -67.8763 0.81065 21.8789 -0.156688 46.7479 0.745951 5.76173 0.482312 4.9301 -1.16162 0.0 0.0 0.0 33.4958 6.21925 -5.53723 2.57761 -0.114696 -0.378856 -3.84479 3.30345 0.569768 -24.2435 0.0 0.0 -0.0 0.0 -0.0 -1.09249 3.42476 3.67505 -18.4649 -0.310748 -2.80432 40.4007 0.797847 4.91651 -4.53502 0.0 0.0 0.0 0.0 0.0 
1030.38443729 574.941 -1698.74439518 -9.24813996579 17.5385467244 0.133635525316 6.00414 0.398078 3.43063 6.01066 0.179103 3.44898 6.01403 -0.189656 3.44842 5.99762 0.357008 3.43514 -6.85342 0.614672 -4.01505 -6.80352 4.05099 -3.89971 -0.0 0.0 -0.0 -4.55717 18.3453 -4.79008 -21.2164 -26.0351 61.8154 1.12805 -29.1957 0.293798 35.9333 -0.15481 -4.51329 -1.80622 28.2962 1.25268 -0.0 0.0 -0.0 9.81597 -3.03217 -19.1085 -19.5564 35.5479 -67.8763 0.81065 21.8789 -0.156688 46.7479 0.745951 5.76173 0.482312 4.9301 -1.16162 0.0 0.0 0.0 33.4958 6.21925 -5.53723 2.57761 -0.114696 -0.378856 -3.84479 3.30345 0.569768 -24.2435 0.0 0.0 -0.0 0.0 -0.0 -1.09249 3.42476 3.67505 -18.4649 -0.310748 -2.80432 40.4007 0.797847 4.91651 -4.53502 0.0 0.0 0.0 0.0 0.0 
1017.3126027 580.677 -1713.41590604 -9.21405287658 19.2152237549 0.388796437276 5.97511 0.310459 3.29275 5.98114 0.100421 3.30581 5.98018 -0.254684 3.29753 5.96511 0.269004 3.29639 -6.17554 0.676461 -4.20383 -6.11882 4.34045 -4.11039 -0.0 0.0 -0.0 -4.41231 16.5111 -4.99716 -20.4939 -26.6419 62.45 1.15865 -29.853 0.308876 36.4106 -0.175852 -4.57057 -1.92589 28.4158 0.663143 -0.0 0.0 -0.0 9.96607 -3.01961 -19.411 -21.4122 35.2628 -68.0779 0.653715 17.9437 -0.10321 46.6582 0.740092 5.75186 0.220238 1.76823 -0.729941 0.0 0.0 0.0 32.4409 6.88626 -4.48309 2.37783 -0.105197 -0.349677 -4.28663 4.60183 0.634645 -24.1319 0.0 0.0 -0.0 0.0 -0.0 -1.19221 3.3063 3.30421 -18.798 -0.308005 -2.85534 40.5377 0.060165 4.92227 -3.42357 0.0 0.0 0.0 0.0 0.0 
